<?xml version="1.0" encoding="UTF-8"?>
<svg id="Capa_1" data-name="Capa 1" xmlns="http://www.w3.org/2000/svg" xmlns:xlink="http://www.w3.org/1999/xlink" viewBox="0 0 83.13 83.13">
  <defs>
    <style>
      .cls-1 {
        fill: url(#Degradado_sin_nombre_11);
      }

      .cls-1, .cls-2 {
        stroke-width: 0px;
      }

      .cls-2 {
        fill: #fff;
      }
    </style>
    <linearGradient id="Degradado_sin_nombre_11" data-name="Degradado sin nombre 11" x1="0" y1="41.56" x2="83.13" y2="41.56" gradientUnits="userSpaceOnUse">
      <stop offset="0" stop-color="#29338a"/>
      <stop offset="1" stop-color="#3e68b0"/>
    </linearGradient>
  </defs>
  <rect class="cls-1" width="83.13" height="83.13" rx="3.6" ry="3.6"/>
  <path class="cls-2" d="M28.17,53.69c.3.2,1.23.62,2.81,1.26,1.58.64,3.43.96,5.55.96,1.53,0,2.76-.26,3.7-.77.94-.51,1.64-1.3,2.11-2.38.47-1.07.79-2.48.96-4.21s.26-3.84.26-6.33V15.82h14.42v26.48c0,3.96-.23,7.56-.7,10.78-.47,3.23-1.42,6.01-2.85,8.36-1.43,2.35-3.58,4.14-6.44,5.39-2.86,1.25-6.68,1.87-11.47,1.87-2.27,0-4.34-.27-6.21-.81s-3.6-1.36-5.18-2.44l3.03-11.76Z"/>
</svg>